<svg width="112" height="33" viewBox="0 0 112 33" fill="none" xmlns="http://www.w3.org/2000/svg">
<path d="M0.52 33V0.599998H3.6L12.8 22.12V0.599998H16.56V33H13.68L4.36 10.88V33H0.52ZM21.6528 33V0.599998H34.2128V3.96H26.1728V14.68H32.6928V17.88H26.1728V29.76H34.2928V33H21.6528ZM37.9419 33V0.599998H42.4619V29.76H50.7419V33H37.9419ZM53.8403 33V0.599998H66.3603V3.84H58.3603V14.64H64.5603V17.84H58.3603V33H53.8403ZM69.4653 33V0.599998H73.9853V29.76H82.2653V33H69.4653ZM85.6038 33V0.599998H90.0438V33H85.6038ZM93.2856 33L100.046 16.04L93.4056 0.599998H97.6056L102.526 12.04L107.006 0.599998H111.206L104.406 16.4L111.526 33H107.326L102.046 20.8L97.4856 33H93.2856Z" fill="white"/>
</svg>
